<svg width="8" height="9" viewBox="0 0 8 9" fill="none" xmlns="http://www.w3.org/2000/svg">
<path d="M8 4.5C8 6.53581 6.34965 8.18616 4.31384 8.18616C2.27803 8.18616 0.627686 6.53581 0.627686 4.5C0.627686 2.46419 2.27803 0.813843 4.31384 0.813843C6.34965 0.813843 8 2.46419 8 4.5ZM1.01751 4.5C1.01751 6.32051 2.49333 7.79633 4.31384 7.79633C6.13436 7.79633 7.61018 6.32051 7.61018 4.5C7.61018 2.67949 6.13436 1.20367 4.31384 1.20367C2.49333 1.20367 1.01751 2.67949 1.01751 4.5Z" fill="#3F3F3F"/>
<path d="M2.82288 3.88735L4.35979 5.51286L5.74893 3.88733" stroke="#3F3F3F" stroke-width="0.434346" stroke-linecap="round"/>
</svg>
